<svg width="1476" height="205" viewBox="0 0 1476 205" fill="none" xmlns="http://www.w3.org/2000/svg">
<path d="M278.6 44V177H265V44H278.6Z" fill="black"/>
<path d="M310.594 150.2C311.661 153.933 313.327 156.867 315.594 159C319.327 162.467 324.794 164.2 331.994 164.2C338.261 164.2 343.327 162.733 347.194 159.8C351.061 156.867 352.994 153.067 352.994 148.4C352.994 144 352.127 140.733 350.394 138.6C348.661 136.467 346.394 135.133 343.594 134.6C340.927 133.933 337.194 133.533 332.394 133.4C325.461 133 319.794 132.267 315.394 131.2C310.994 130 306.994 127.4 303.394 123.4C298.994 117.933 296.794 111.933 296.794 105.4C296.794 103.8 296.861 102.6 296.994 101.8C298.061 93.4 301.594 87 307.594 82.6C313.594 78.0667 321.661 75.8 331.794 75.8H331.994C339.461 75.8 345.527 77.2 350.194 80C354.861 82.8 358.461 86.2 360.994 90.2C363.661 94.6 365.327 99.2 365.994 104H351.994C351.727 102.133 350.861 99.9333 349.394 97.4C346.061 92.3333 340.261 89.6667 331.994 89.4C323.594 89.4 318.061 90.8 315.394 93.6C312.727 96.4 311.127 99.6667 310.594 103.4C310.461 103.933 310.394 104.667 310.394 105.6C310.394 108.8 311.527 111.667 313.794 114.2C315.661 116.467 318.061 118 320.994 118.8C323.927 119.467 328.127 120 333.594 120.4C337.994 120.667 341.727 121.067 344.794 121.6C347.994 122.133 350.994 123.133 353.794 124.6C362.461 129.267 366.794 137.2 366.794 148.4C366.794 152.267 365.994 156 364.394 159.6C362.927 163.067 360.794 166.133 357.994 168.8C351.727 174.933 343.127 178 332.194 178C321.527 178 312.861 175 306.194 169C300.994 163.933 297.794 157.667 296.594 150.2H310.594Z" fill="black"/>
<path d="M479.821 79.6V177H466.021V158.6C456.821 171.533 444.554 178 429.221 178C420.021 178 411.554 175.8 403.821 171.4C396.087 166.867 389.954 160.733 385.421 153C381.021 145.267 378.821 136.867 378.821 127.8C378.821 118.6 381.021 110.133 385.421 102.4C389.954 94.6667 396.087 88.6 403.821 84.2C411.554 79.6667 420.021 77.4 429.221 77.4C438.687 77.4 446.421 79.4 452.421 83.4C458.554 87.2667 463.087 91.4667 466.021 96V79.6H479.821ZM429.221 164.4C435.887 164.4 442.021 162.8 447.621 159.6C453.221 156.267 457.621 151.8 460.821 146.2C464.154 140.6 465.821 134.467 465.821 127.8C465.821 121.133 464.154 115 460.821 109.4C457.621 103.667 453.221 99.2 447.621 96C442.021 92.6667 435.887 91 429.221 91C422.554 91 416.354 92.6667 410.621 96C405.021 99.2 400.554 103.667 397.221 109.4C394.021 115 392.421 121.133 392.421 127.8C392.421 134.467 394.021 140.6 397.221 146.2C400.554 151.8 405.021 156.267 410.621 159.6C416.354 162.8 422.554 164.4 429.221 164.4Z" fill="black"/>
<path d="M513.166 44.2V95.4C522.366 83 534.833 76.8 550.566 76.8C559.766 76.8 568.233 79.0667 575.966 83.6C583.699 88.1333 589.833 94.3333 594.366 102.2C598.899 109.933 601.166 118.333 601.166 127.4C601.166 136.467 598.899 144.933 594.366 152.8C589.833 160.533 583.699 166.667 575.966 171.2C568.233 175.733 559.766 178 550.566 178C535.366 178 522.899 171.467 513.166 158.4V177H499.766V44.2H513.166ZM513.566 127.4C513.566 134.067 515.233 140.267 518.566 146C521.899 151.6 526.366 156.067 531.966 159.4C537.699 162.733 543.899 164.4 550.566 164.4C557.233 164.4 563.366 162.733 568.966 159.4C574.566 156.067 579.033 151.6 582.366 146C585.699 140.267 587.366 134.067 587.366 127.4C587.366 120.733 585.699 114.6 582.366 109C579.033 103.4 574.566 98.9333 568.966 95.6C563.366 92.2667 557.233 90.6 550.566 90.6C543.899 90.6 537.699 92.2667 531.966 95.6C526.366 98.9333 521.899 103.4 518.566 109C515.233 114.6 513.566 120.733 513.566 127.4Z" fill="black"/>
<path d="M627.596 134.4C629.196 142.933 633.396 150.067 640.196 155.8C646.996 161.4 654.796 164.2 663.596 164.2C670.129 164.2 676.129 162.667 681.596 159.6C687.062 156.533 691.462 152.333 694.796 147L706.596 153.8C702.062 161.133 695.996 167 688.396 171.4C680.796 175.8 672.529 178 663.596 178C654.529 178 646.129 175.733 638.396 171.2C630.662 166.667 624.529 160.533 619.996 152.8C615.462 145.067 613.196 136.667 613.196 127.6C613.196 118.4 615.462 110 619.996 102.4C624.529 94.6667 630.662 88.5333 638.396 84C646.129 79.4667 654.529 77.2 663.596 77.2C672.662 77.2 681.062 79.4667 688.796 84C696.529 88.5333 702.662 94.6667 707.196 102.4C711.729 110 713.996 118.4 713.996 127.6C713.996 129.2 713.862 131.467 713.596 134.4H627.596ZM663.596 90.8C657.729 90.8 651.996 92.2 646.396 95C640.796 97.6667 636.262 101.4 632.796 106.2C629.329 110.867 627.596 115.933 627.596 121.4H699.596C699.596 115.933 697.862 110.867 694.396 106.2C690.929 101.4 686.396 97.6667 680.796 95C675.329 92.2 669.596 90.8 663.596 90.8Z" fill="black"/>
<path d="M745.592 44V177H731.992V44H745.592Z" fill="black"/>
<path d="M779.186 44V177H765.586V44H779.186Z" fill="black"/>
<path d="M811.58 134.4C813.18 142.933 817.38 150.067 824.18 155.8C830.98 161.4 838.78 164.2 847.58 164.2C854.113 164.2 860.113 162.667 865.58 159.6C871.047 156.533 875.447 152.333 878.78 147L890.58 153.8C886.047 161.133 879.98 167 872.38 171.4C864.78 175.8 856.513 178 847.58 178C838.513 178 830.113 175.733 822.38 171.2C814.647 166.667 808.513 160.533 803.98 152.8C799.447 145.067 797.18 136.667 797.18 127.6C797.18 118.4 799.447 110 803.98 102.4C808.513 94.6667 814.647 88.5333 822.38 84C830.113 79.4667 838.513 77.2 847.58 77.2C856.647 77.2 865.047 79.4667 872.78 84C880.513 88.5333 886.647 94.6667 891.18 102.4C895.713 110 897.98 118.4 897.98 127.6C897.98 129.2 897.847 131.467 897.58 134.4H811.58ZM847.58 90.8C841.713 90.8 835.98 92.2 830.38 95C824.78 97.6667 820.247 101.4 816.78 106.2C813.313 110.867 811.58 115.933 811.58 121.4H883.58C883.58 115.933 881.847 110.867 878.38 106.2C874.913 101.4 870.38 97.6667 864.78 95C859.313 92.2 853.58 90.8 847.58 90.8Z" fill="black"/>
<path d="M1036.62 128H989.816L972.616 177H958.016L1004.62 44.2H1021.82L1068.42 177H1053.82L1036.62 128ZM1032.22 115.2L1013.22 60.8L994.216 115.2H1032.22Z" fill="black"/>
<path d="M1099.98 44V177H1086.38V44H1099.98Z" fill="black"/>
<path d="M1211.38 77.4L1171.98 177H1157.38L1117.98 77.4H1132.58L1164.78 158L1196.78 77.4H1211.38Z" fill="black"/>
<path d="M1229.84 134.4C1231.44 142.933 1235.64 150.067 1242.44 155.8C1249.24 161.4 1257.04 164.2 1265.84 164.2C1272.37 164.2 1278.37 162.667 1283.84 159.6C1289.3 156.533 1293.7 152.333 1297.04 147L1308.84 153.8C1304.3 161.133 1298.24 167 1290.64 171.4C1283.04 175.8 1274.77 178 1265.84 178C1256.77 178 1248.37 175.733 1240.64 171.2C1232.9 166.667 1226.77 160.533 1222.24 152.8C1217.7 145.067 1215.44 136.667 1215.44 127.6C1215.44 118.4 1217.7 110 1222.24 102.4C1226.77 94.6667 1232.9 88.5333 1240.64 84C1248.37 79.4667 1256.77 77.2 1265.84 77.2C1274.9 77.2 1283.3 79.4667 1291.04 84C1298.77 88.5333 1304.9 94.6667 1309.44 102.4C1313.97 110 1316.24 118.4 1316.24 127.6C1316.24 129.2 1316.1 131.467 1315.84 134.4H1229.84ZM1265.84 90.8C1259.97 90.8 1254.24 92.2 1248.64 95C1243.04 97.6667 1238.5 101.4 1235.04 106.2C1231.57 110.867 1229.84 115.933 1229.84 121.4H1301.84C1301.84 115.933 1300.1 110.867 1296.64 106.2C1293.17 101.4 1288.64 97.6667 1283.04 95C1277.57 92.2 1271.84 90.8 1265.84 90.8Z" fill="black"/>
<path d="M1344.28 150.2C1345.35 153.933 1347.01 156.867 1349.28 159C1353.01 162.467 1358.48 164.2 1365.68 164.2C1371.95 164.2 1377.01 162.733 1380.88 159.8C1384.75 156.867 1386.68 153.067 1386.68 148.4C1386.68 144 1385.81 140.733 1384.08 138.6C1382.35 136.467 1380.08 135.133 1377.28 134.6C1374.61 133.933 1370.88 133.533 1366.08 133.4C1359.15 133 1353.48 132.267 1349.08 131.2C1344.68 130 1340.68 127.4 1337.08 123.4C1332.68 117.933 1330.48 111.933 1330.48 105.4C1330.48 103.8 1330.55 102.6 1330.68 101.8C1331.75 93.4 1335.28 87 1341.28 82.6C1347.28 78.0667 1355.35 75.8 1365.48 75.8H1365.68C1373.15 75.8 1379.21 77.2 1383.88 80C1388.55 82.8 1392.15 86.2 1394.68 90.2C1397.35 94.6 1399.01 99.2 1399.68 104H1385.68C1385.41 102.133 1384.55 99.9333 1383.08 97.4C1379.75 92.3333 1373.95 89.6667 1365.68 89.4C1357.28 89.4 1351.75 90.8 1349.08 93.6C1346.41 96.4 1344.81 99.6667 1344.28 103.4C1344.15 103.933 1344.08 104.667 1344.08 105.6C1344.08 108.8 1345.21 111.667 1347.48 114.2C1349.35 116.467 1351.75 118 1354.68 118.8C1357.61 119.467 1361.81 120 1367.28 120.4C1371.68 120.667 1375.41 121.067 1378.48 121.6C1381.68 122.133 1384.68 123.133 1387.48 124.6C1396.15 129.267 1400.48 137.2 1400.48 148.4C1400.48 152.267 1399.68 156 1398.08 159.6C1396.61 163.067 1394.48 166.133 1391.68 168.8C1385.41 174.933 1376.81 178 1365.88 178C1355.21 178 1346.55 175 1339.88 169C1334.68 163.933 1331.48 157.667 1330.28 150.2H1344.28Z" fill="black"/>
<path d="M102.451 153.849C101.692 153.061 100.447 151.558 99.6869 150.508C95.9382 145.398 94.2244 139.076 95.0584 133.553C95.232 132.473 96.7781 127.047 98.5378 121.552C102.495 108.988 104.274 103.246 107.683 91.7827C109.18 86.7791 110.723 81.9725 111.117 81.0865C112.241 78.5843 115.997 73.6118 118.008 71.9884C120.013 70.329 122.416 69.0606 125.246 68.1419C129.709 66.6922 167.495 54.6084 180.753 50.3915C184.072 49.3417 190.024 47.4199 193.988 46.1598C202.006 43.6045 202.526 43.5637 204.707 45.1687C206.931 46.8054 206.91 46.7901 206.789 58.6182C206.675 68.6223 206.529 86.961 206.399 103.55C206.169 132.96 206.213 131.883 204.769 135.619C204.163 137.196 203.562 138.191 201.535 140.944C198.61 144.962 197.797 145.668 191.387 149.897C189.112 151.39 184.193 154.658 180.507 157.136C176.807 159.636 172.775 162.317 171.563 163.124C170.35 163.929 165.813 166.988 161.48 169.904C157.169 172.836 152.881 175.557 151.985 175.974C145.758 178.802 138.103 178.423 131.067 174.942C128.262 173.563 104.56 156.087 102.451 153.849ZM132.236 164.704C136.953 167.032 141.379 167.941 145.317 167.379C149.257 166.818 149.827 166.486 169.396 153.205C173.219 150.631 179.564 146.356 183.541 143.701C191.383 138.502 193.102 137.189 194.286 135.579C195.097 134.477 195.875 132.667 196.265 131.029C196.371 130.486 196.531 124.368 196.58 117.384C196.633 110.436 196.697 102.453 196.71 99.6864C196.722 96.9202 196.778 90.8563 196.824 86.2222C196.85 81.5728 196.914 74.5679 196.936 70.6332C196.958 66.6984 196.975 63.3494 196.964 63.1438C196.936 62.9607 190.944 70.9238 182.497 82.4009L168.064 102.011L169.112 103.336C170.978 105.723 171.964 108.112 172.484 111.531C173.317 117.01 172.04 121.36 168.315 125.931C165.961 128.866 163.639 130.554 160.573 131.659C156.635 133.104 152.713 133.155 148.473 131.863C146.285 131.199 145.914 130.993 143.267 129.045C141.149 127.485 140.104 126.554 139.206 125.469C137.701 123.61 136.185 120.569 135.528 118.224C134.646 114.899 134.973 110.242 136.376 106.868C137.168 104.904 140.349 100.717 142.072 99.3058C146.98 95.3438 153.885 94.1233 159.494 96.2603L161.072 96.8666L175.505 77.2569L189.922 57.6678L188.075 58.2681C178.971 61.1008 166.58 65.0736 152.809 69.4974C148.719 70.7951 143.087 72.5928 140.271 73.4926C124.776 78.4442 125.11 78.2982 122.627 80.5202C120.274 82.6088 120.433 82.1714 113.783 104.113C112.323 108.981 109.834 116.976 108.268 121.897C106.704 126.818 105.268 131.606 105.108 132.533C104.161 138.301 106.472 144.342 111.652 149.592C114.024 151.958 129.521 163.33 132.23 164.705L132.236 164.704ZM152.098 123.038C155.675 123.679 159.837 122.237 161.64 119.744C163.999 116.452 163.609 111.168 160.742 107.656C159.769 106.449 159.536 106.278 158.115 105.723C155.027 104.463 151.567 104.593 148.725 106.06C146.824 107.045 145.231 109.301 144.81 111.601C143.838 117.09 147.029 122.115 152.096 123.036L152.098 123.038Z" fill="black"/>
</svg>
