<svg width="1476" height="205" viewBox="0 0 1476 205" fill="none" xmlns="http://www.w3.org/2000/svg">
<path d="M278.6 44V177H265V44H278.6Z" fill="black"/>
<path d="M310.594 150.2C311.661 153.933 313.327 156.867 315.594 159C319.327 162.467 324.794 164.2 331.994 164.2C338.261 164.2 343.327 162.733 347.194 159.8C351.061 156.867 352.994 153.067 352.994 148.4C352.994 144 352.127 140.733 350.394 138.6C348.661 136.467 346.394 135.133 343.594 134.6C340.927 133.933 337.194 133.533 332.394 133.4C325.461 133 319.794 132.267 315.394 131.2C310.994 130 306.994 127.4 303.394 123.4C298.994 117.933 296.794 111.933 296.794 105.4C296.794 103.8 296.861 102.6 296.994 101.8C298.061 93.4 301.594 87 307.594 82.6C313.594 78.0667 321.661 75.8 331.794 75.8H331.994C339.461 75.8 345.527 77.2 350.194 80C354.861 82.8 358.461 86.2 360.994 90.2C363.661 94.6 365.327 99.2 365.994 104H351.994C351.727 102.133 350.861 99.9333 349.394 97.4C346.061 92.3333 340.261 89.6667 331.994 89.4C323.594 89.4 318.061 90.8 315.394 93.6C312.727 96.4 311.127 99.6667 310.594 103.4C310.461 103.933 310.394 104.667 310.394 105.6C310.394 108.8 311.527 111.667 313.794 114.2C315.661 116.467 318.061 118 320.994 118.8C323.927 119.467 328.127 120 333.594 120.4C337.994 120.667 341.727 121.067 344.794 121.6C347.994 122.133 350.994 123.133 353.794 124.6C362.461 129.267 366.794 137.2 366.794 148.4C366.794 152.267 365.994 156 364.394 159.6C362.927 163.067 360.794 166.133 357.994 168.8C351.727 174.933 343.127 178 332.194 178C321.527 178 312.861 175 306.194 169C300.994 163.933 297.794 157.667 296.594 150.2H310.594Z" fill="black"/>
<path d="M479.821 79.6V177H466.021V158.6C456.821 171.533 444.554 178 429.221 178C420.021 178 411.554 175.8 403.821 171.4C396.087 166.867 389.954 160.733 385.421 153C381.021 145.267 378.821 136.867 378.821 127.8C378.821 118.6 381.021 110.133 385.421 102.4C389.954 94.6667 396.087 88.6 403.821 84.2C411.554 79.6667 420.021 77.4 429.221 77.4C438.687 77.4 446.421 79.4 452.421 83.4C458.554 87.2667 463.087 91.4667 466.021 96V79.6H479.821ZM429.221 164.4C435.887 164.4 442.021 162.8 447.621 159.6C453.221 156.267 457.621 151.8 460.821 146.2C464.154 140.6 465.821 134.467 465.821 127.8C465.821 121.133 464.154 115 460.821 109.4C457.621 103.667 453.221 99.2 447.621 96C442.021 92.6667 435.887 91 429.221 91C422.554 91 416.354 92.6667 410.621 96C405.021 99.2 400.554 103.667 397.221 109.4C394.021 115 392.421 121.133 392.421 127.8C392.421 134.467 394.021 140.6 397.221 146.2C400.554 151.8 405.021 156.267 410.621 159.6C416.354 162.8 422.554 164.4 429.221 164.4Z" fill="black"/>
<path d="M513.166 44.2V95.4C522.366 83 534.833 76.8 550.566 76.8C559.766 76.8 568.233 79.0667 575.966 83.6C583.699 88.1333 589.833 94.3333 594.366 102.2C598.899 109.933 601.166 118.333 601.166 127.4C601.166 136.467 598.899 144.933 594.366 152.8C589.833 160.533 583.699 166.667 575.966 171.2C568.233 175.733 559.766 178 550.566 178C535.366 178 522.899 171.467 513.166 158.4V177H499.766V44.2H513.166ZM513.566 127.4C513.566 134.067 515.233 140.267 518.566 146C521.899 151.6 526.366 156.067 531.966 159.4C537.699 162.733 543.899 164.4 550.566 164.4C557.233 164.4 563.366 162.733 568.966 159.4C574.566 156.067 579.033 151.6 582.366 146C585.699 140.267 587.366 134.067 587.366 127.4C587.366 120.733 585.699 114.6 582.366 109C579.033 103.4 574.566 98.9333 568.966 95.6C563.366 92.2667 557.233 90.6 550.566 90.6C543.899 90.6 537.699 92.2667 531.966 95.6C526.366 98.9333 521.899 103.4 518.566 109C515.233 114.6 513.566 120.733 513.566 127.4Z" fill="black"/>
<path d="M627.596 134.4C629.196 142.933 633.396 150.067 640.196 155.8C646.996 161.4 654.796 164.2 663.596 164.2C670.129 164.2 676.129 162.667 681.596 159.6C687.062 156.533 691.462 152.333 694.796 147L706.596 153.8C702.062 161.133 695.996 167 688.396 171.4C680.796 175.8 672.529 178 663.596 178C654.529 178 646.129 175.733 638.396 171.2C630.662 166.667 624.529 160.533 619.996 152.8C615.462 145.067 613.196 136.667 613.196 127.6C613.196 118.4 615.462 110 619.996 102.4C624.529 94.6667 630.662 88.5333 638.396 84C646.129 79.4667 654.529 77.2 663.596 77.2C672.662 77.2 681.062 79.4667 688.796 84C696.529 88.5333 702.662 94.6667 707.196 102.4C711.729 110 713.996 118.4 713.996 127.6C713.996 129.2 713.862 131.467 713.596 134.4H627.596ZM663.596 90.8C657.729 90.8 651.996 92.2 646.396 95C640.796 97.6667 636.262 101.4 632.796 106.2C629.329 110.867 627.596 115.933 627.596 121.4H699.596C699.596 115.933 697.862 110.867 694.396 106.2C690.929 101.4 686.396 97.6667 680.796 95C675.329 92.2 669.596 90.8 663.596 90.8Z" fill="black"/>
<path d="M745.592 44V177H731.992V44H745.592Z" fill="black"/>
<path d="M779.186 44V177H765.586V44H779.186Z" fill="black"/>
<path d="M811.58 134.4C813.18 142.933 817.38 150.067 824.18 155.8C830.98 161.4 838.78 164.2 847.58 164.2C854.113 164.2 860.113 162.667 865.58 159.6C871.047 156.533 875.447 152.333 878.78 147L890.58 153.8C886.047 161.133 879.98 167 872.38 171.4C864.78 175.8 856.513 178 847.58 178C838.513 178 830.113 175.733 822.38 171.2C814.647 166.667 808.513 160.533 803.98 152.8C799.447 145.067 797.18 136.667 797.18 127.6C797.18 118.4 799.447 110 803.98 102.4C808.513 94.6667 814.647 88.5333 822.38 84C830.113 79.4667 838.513 77.2 847.58 77.2C856.647 77.2 865.047 79.4667 872.78 84C880.513 88.5333 886.647 94.6667 891.18 102.4C895.713 110 897.98 118.4 897.98 127.6C897.98 129.2 897.847 131.467 897.58 134.4H811.58ZM847.58 90.8C841.713 90.8 835.98 92.2 830.38 95C824.78 97.6667 820.247 101.4 816.78 106.2C813.313 110.867 811.58 115.933 811.58 121.4H883.58C883.58 115.933 881.847 110.867 878.38 106.2C874.913 101.4 870.38 97.6667 864.78 95C859.313 92.2 853.58 90.8 847.58 90.8Z" fill="black"/>
<path d="M1082.62 128H1035.82L1018.62 177H1004.02L1050.62 44.2H1067.82L1114.42 177H1099.82L1082.62 128ZM1078.22 115.2L1059.22 60.8L1040.22 115.2H1078.22Z" fill="black"/>
<path d="M1145.98 44V177H1132.38V44H1145.98Z" fill="black"/>
<path d="M1257.38 77.4L1217.98 177H1203.38L1163.98 77.4H1178.58L1210.78 158L1242.78 77.4H1257.38Z" fill="black"/>
<path d="M1275.84 134.4C1277.44 142.933 1281.64 150.067 1288.44 155.8C1295.24 161.4 1303.04 164.2 1311.84 164.2C1318.37 164.2 1324.37 162.667 1329.84 159.6C1335.3 156.533 1339.7 152.333 1343.04 147L1354.84 153.8C1350.3 161.133 1344.24 167 1336.64 171.4C1329.04 175.8 1320.77 178 1311.84 178C1302.77 178 1294.37 175.733 1286.64 171.2C1278.9 166.667 1272.77 160.533 1268.24 152.8C1263.7 145.067 1261.44 136.667 1261.44 127.6C1261.44 118.4 1263.7 110 1268.24 102.4C1272.77 94.6667 1278.9 88.5333 1286.64 84C1294.37 79.4667 1302.77 77.2 1311.84 77.2C1320.9 77.2 1329.3 79.4667 1337.04 84C1344.77 88.5333 1350.9 94.6667 1355.44 102.4C1359.97 110 1362.24 118.4 1362.24 127.6C1362.24 129.2 1362.1 131.467 1361.84 134.4H1275.84ZM1311.84 90.8C1305.97 90.8 1300.24 92.2 1294.64 95C1289.04 97.6667 1284.5 101.4 1281.04 106.2C1277.57 110.867 1275.84 115.933 1275.84 121.4H1347.84C1347.84 115.933 1346.1 110.867 1342.64 106.2C1339.17 101.4 1334.64 97.6667 1329.04 95C1323.57 92.2 1317.84 90.8 1311.84 90.8Z" fill="black"/>
<path d="M1390.28 150.2C1391.35 153.933 1393.01 156.867 1395.28 159C1399.01 162.467 1404.48 164.2 1411.68 164.2C1417.95 164.2 1423.01 162.733 1426.88 159.8C1430.75 156.867 1432.68 153.067 1432.68 148.4C1432.68 144 1431.81 140.733 1430.08 138.6C1428.35 136.467 1426.08 135.133 1423.28 134.6C1420.61 133.933 1416.88 133.533 1412.08 133.4C1405.15 133 1399.48 132.267 1395.08 131.2C1390.68 130 1386.68 127.4 1383.08 123.4C1378.68 117.933 1376.48 111.933 1376.48 105.4C1376.48 103.8 1376.55 102.6 1376.68 101.8C1377.75 93.4 1381.28 87 1387.28 82.6C1393.28 78.0667 1401.35 75.8 1411.48 75.8H1411.68C1419.15 75.8 1425.21 77.2 1429.88 80C1434.55 82.8 1438.15 86.2 1440.68 90.2C1443.35 94.6 1445.01 99.2 1445.68 104H1431.68C1431.41 102.133 1430.55 99.9333 1429.08 97.4C1425.75 92.3333 1419.95 89.6667 1411.68 89.4C1403.28 89.4 1397.75 90.8 1395.08 93.6C1392.41 96.4 1390.81 99.6667 1390.28 103.4C1390.15 103.933 1390.08 104.667 1390.08 105.6C1390.08 108.8 1391.21 111.667 1393.48 114.2C1395.35 116.467 1397.75 118 1400.68 118.8C1403.61 119.467 1407.81 120 1413.28 120.4C1417.68 120.667 1421.41 121.067 1424.48 121.6C1427.68 122.133 1430.68 123.133 1433.48 124.6C1442.15 129.267 1446.48 137.2 1446.48 148.4C1446.48 152.267 1445.68 156 1444.08 159.6C1442.61 163.067 1440.48 166.133 1437.68 168.8C1431.41 174.933 1422.81 178 1411.88 178C1401.21 178 1392.55 175 1385.88 169C1380.68 163.933 1377.48 157.667 1376.28 150.2H1390.28Z" fill="black"/>
<path d="M99.6077 153.947C98.8119 153.12 97.5057 151.544 96.7083 150.442C92.7757 145.081 90.9779 138.45 91.8528 132.656C92.035 131.523 93.6568 125.831 95.5028 120.066C99.6543 106.887 101.52 100.863 105.097 88.8378C106.667 83.5889 108.286 78.5467 108.699 77.6172C109.878 74.9923 113.818 69.7761 115.927 68.0731C118.031 66.3323 120.551 65.0018 123.52 64.038C128.202 62.5173 167.84 49.8411 181.749 45.4175C185.23 44.3162 191.474 42.3002 195.632 40.9784C204.043 38.2978 204.589 38.255 206.877 39.9386C209.21 41.6556 209.188 41.6396 209.061 54.0475C208.941 64.542 208.788 83.7797 208.652 101.181C208.411 132.033 208.456 130.903 206.942 134.823C206.306 136.478 205.675 137.521 203.55 140.409C200.48 144.624 199.628 145.364 192.903 149.801C190.517 151.367 185.357 154.795 181.491 157.395C177.609 160.017 173.379 162.83 172.108 163.676C170.835 164.521 166.076 167.73 161.531 170.789C157.008 173.865 152.511 176.719 151.57 177.156C145.038 180.123 137.008 179.725 129.627 176.074C126.684 174.627 101.821 156.294 99.6077 153.947ZM130.853 165.334C135.801 167.776 140.444 168.73 144.575 168.14C148.708 167.552 149.306 167.203 169.835 153.272C173.845 150.571 180.501 146.087 184.674 143.302C192.9 137.848 194.702 136.47 195.945 134.781C196.796 133.626 197.612 131.726 198.021 130.008C198.133 129.438 198.3 123.02 198.351 115.694C198.407 108.405 198.474 100.031 198.487 97.1289C198.5 94.2271 198.559 87.866 198.608 83.0047C198.635 78.1274 198.701 70.7791 198.724 66.6514C198.748 62.5238 198.766 59.0106 198.754 58.7949C198.725 58.6028 192.439 66.9563 183.578 78.996L168.438 99.5671L169.537 100.958C171.495 103.462 172.528 105.967 173.074 109.554C173.948 115.302 172.608 119.865 168.701 124.66C166.231 127.739 163.795 129.509 160.579 130.669C156.448 132.185 152.334 132.238 147.886 130.883C145.591 130.187 145.202 129.97 142.425 127.926C140.202 126.291 139.107 125.314 138.165 124.176C136.586 122.225 134.996 119.036 134.306 116.576C133.381 113.087 133.724 108.202 135.196 104.662C136.027 102.603 139.364 98.2097 141.172 96.7297C146.32 92.5734 153.563 91.2931 159.448 93.5349L161.102 94.171L176.243 73.5999L191.367 53.0505L189.43 53.6802C179.879 56.6518 166.881 60.8194 152.435 65.46C148.144 66.8213 142.236 68.7072 139.282 69.651C123.027 74.8454 123.378 74.6922 120.773 77.0232C118.305 79.2141 118.472 78.7554 111.496 101.773C109.963 106.879 107.353 115.266 105.71 120.428C104.069 125.591 102.563 130.613 102.395 131.586C101.401 137.636 103.826 143.974 109.26 149.481C111.748 151.963 128.004 163.892 130.847 165.335L130.853 165.334ZM151.688 121.625C155.441 122.298 159.807 120.785 161.699 118.17C164.173 114.716 163.764 109.174 160.756 105.489C159.736 104.224 159.491 104.043 158.001 103.461C154.762 102.14 151.132 102.276 148.15 103.815C146.157 104.848 144.485 107.214 144.043 109.627C143.024 115.385 146.371 120.657 151.686 121.624L151.688 121.625Z" fill="url(#paint0_linear_2042_553)"/>
<defs>
<linearGradient id="paint0_linear_2042_553" x1="206.77" y1="39.8596" x2="75.2973" y2="204.068" gradientUnits="userSpaceOnUse">
<stop stop-color="#DA37F4"/>
<stop offset="1" stop-color="#6C1FF3"/>
</linearGradient>
</defs>
</svg>
