<svg width="1476" height="291" viewBox="0 0 1476 291" fill="none" xmlns="http://www.w3.org/2000/svg">
<g clip-path="url(#clip0_2042_473)">
<path d="M278.6 44V177H265V44H278.6Z" fill="black"/>
<path d="M310.594 150.2C311.661 153.933 313.327 156.867 315.594 159C319.327 162.467 324.794 164.2 331.994 164.2C338.261 164.2 343.327 162.733 347.194 159.8C351.061 156.867 352.994 153.067 352.994 148.4C352.994 144 352.127 140.733 350.394 138.6C348.661 136.467 346.394 135.133 343.594 134.6C340.927 133.933 337.194 133.533 332.394 133.4C325.461 133 319.794 132.267 315.394 131.2C310.994 130 306.994 127.4 303.394 123.4C298.994 117.933 296.794 111.933 296.794 105.4C296.794 103.8 296.861 102.6 296.994 101.8C298.061 93.4 301.594 87 307.594 82.6C313.594 78.0667 321.661 75.8 331.794 75.8H331.994C339.461 75.8 345.527 77.2 350.194 80C354.861 82.8 358.461 86.2 360.994 90.2C363.661 94.6 365.327 99.2 365.994 104H351.994C351.727 102.133 350.861 99.9333 349.394 97.4C346.061 92.3333 340.261 89.6667 331.994 89.4C323.594 89.4 318.061 90.8 315.394 93.6C312.727 96.4 311.127 99.6667 310.594 103.4C310.461 103.933 310.394 104.667 310.394 105.6C310.394 108.8 311.527 111.667 313.794 114.2C315.661 116.467 318.061 118 320.994 118.8C323.927 119.467 328.127 120 333.594 120.4C337.994 120.667 341.727 121.067 344.794 121.6C347.994 122.133 350.994 123.133 353.794 124.6C362.461 129.267 366.794 137.2 366.794 148.4C366.794 152.267 365.994 156 364.394 159.6C362.927 163.067 360.794 166.133 357.994 168.8C351.727 174.933 343.127 178 332.194 178C321.527 178 312.861 175 306.194 169C300.994 163.933 297.794 157.667 296.594 150.2H310.594Z" fill="black"/>
<path d="M479.82 79.6V177H466.02V158.6C456.82 171.533 444.554 178 429.22 178C420.02 178 411.554 175.8 403.82 171.4C396.087 166.867 389.954 160.733 385.42 153C381.02 145.267 378.82 136.867 378.82 127.8C378.82 118.6 381.02 110.133 385.42 102.4C389.954 94.6667 396.087 88.6 403.82 84.2C411.554 79.6667 420.02 77.4 429.22 77.4C438.687 77.4 446.42 79.4 452.42 83.4C458.554 87.2667 463.087 91.4667 466.02 96V79.6H479.82ZM429.22 164.4C435.887 164.4 442.02 162.8 447.62 159.6C453.22 156.267 457.62 151.8 460.82 146.2C464.154 140.6 465.82 134.467 465.82 127.8C465.82 121.133 464.154 115 460.82 109.4C457.62 103.667 453.22 99.2 447.62 96C442.02 92.6667 435.887 91 429.22 91C422.554 91 416.354 92.6667 410.62 96C405.02 99.2 400.554 103.667 397.22 109.4C394.02 115 392.42 121.133 392.42 127.8C392.42 134.467 394.02 140.6 397.22 146.2C400.554 151.8 405.02 156.267 410.62 159.6C416.354 162.8 422.554 164.4 429.22 164.4Z" fill="black"/>
<path d="M513.166 44.2V95.4C522.366 83 534.832 76.8 550.566 76.8C559.766 76.8 568.232 79.0667 575.966 83.6C583.699 88.1333 589.832 94.3333 594.366 102.2C598.899 109.933 601.166 118.333 601.166 127.4C601.166 136.467 598.899 144.933 594.366 152.8C589.832 160.533 583.699 166.667 575.966 171.2C568.232 175.733 559.766 178 550.566 178C535.366 178 522.899 171.467 513.166 158.4V177H499.766V44.2H513.166ZM513.566 127.4C513.566 134.067 515.232 140.267 518.566 146C521.899 151.6 526.366 156.067 531.966 159.4C537.699 162.733 543.899 164.4 550.566 164.4C557.232 164.4 563.366 162.733 568.966 159.4C574.566 156.067 579.032 151.6 582.366 146C585.699 140.267 587.366 134.067 587.366 127.4C587.366 120.733 585.699 114.6 582.366 109C579.032 103.4 574.566 98.9333 568.966 95.6C563.366 92.2667 557.232 90.6 550.566 90.6C543.899 90.6 537.699 92.2667 531.966 95.6C526.366 98.9333 521.899 103.4 518.566 109C515.232 114.6 513.566 120.733 513.566 127.4Z" fill="black"/>
<path d="M627.595 134.4C629.195 142.933 633.395 150.067 640.195 155.8C646.995 161.4 654.795 164.2 663.595 164.2C670.129 164.2 676.129 162.667 681.595 159.6C687.062 156.533 691.462 152.333 694.795 147L706.595 153.8C702.062 161.133 695.995 167 688.395 171.4C680.795 175.8 672.529 178 663.595 178C654.529 178 646.129 175.733 638.395 171.2C630.662 166.667 624.529 160.533 619.995 152.8C615.462 145.067 613.195 136.667 613.195 127.6C613.195 118.4 615.462 110 619.995 102.4C624.529 94.6667 630.662 88.5333 638.395 84C646.129 79.4667 654.529 77.2 663.595 77.2C672.662 77.2 681.062 79.4667 688.795 84C696.529 88.5333 702.662 94.6667 707.195 102.4C711.729 110 713.995 118.4 713.995 127.6C713.995 129.2 713.862 131.467 713.595 134.4H627.595ZM663.595 90.8C657.729 90.8 651.995 92.2 646.395 95C640.795 97.6667 636.262 101.4 632.795 106.2C629.329 110.867 627.595 115.933 627.595 121.4H699.595C699.595 115.933 697.862 110.867 694.395 106.2C690.929 101.4 686.395 97.6667 680.795 95C675.329 92.2 669.595 90.8 663.595 90.8Z" fill="black"/>
<path d="M745.592 44V177H731.992V44H745.592Z" fill="black"/>
<path d="M779.186 44V177H765.586V44H779.186Z" fill="black"/>
<path d="M811.58 134.4C813.18 142.933 817.38 150.067 824.18 155.8C830.98 161.4 838.78 164.2 847.58 164.2C854.113 164.2 860.113 162.667 865.58 159.6C871.046 156.533 875.446 152.333 878.78 147L890.58 153.8C886.046 161.133 879.98 167 872.38 171.4C864.78 175.8 856.513 178 847.58 178C838.513 178 830.113 175.733 822.38 171.2C814.646 166.667 808.513 160.533 803.98 152.8C799.446 145.067 797.18 136.667 797.18 127.6C797.18 118.4 799.446 110 803.98 102.4C808.513 94.6667 814.646 88.5333 822.38 84C830.113 79.4667 838.513 77.2 847.58 77.2C856.646 77.2 865.046 79.4667 872.78 84C880.513 88.5333 886.646 94.6667 891.18 102.4C895.713 110 897.98 118.4 897.98 127.6C897.98 129.2 897.846 131.467 897.58 134.4H811.58ZM847.58 90.8C841.713 90.8 835.98 92.2 830.38 95C824.78 97.6667 820.246 101.4 816.78 106.2C813.313 110.867 811.58 115.933 811.58 121.4H883.58C883.58 115.933 881.846 110.867 878.38 106.2C874.913 101.4 870.38 97.6667 864.78 95C859.313 92.2 853.58 90.8 847.58 90.8Z" fill="black"/>
<path d="M1082.62 128H1035.82L1018.62 177H1004.02L1050.62 44.2H1067.82L1114.42 177H1099.82L1082.62 128ZM1078.22 115.2L1059.22 60.8L1040.22 115.2H1078.22Z" fill="black"/>
<path d="M1145.98 44V177H1132.38V44H1145.98Z" fill="black"/>
<path d="M1257.38 77.4L1217.98 177H1203.38L1163.98 77.4H1178.58L1210.78 158L1242.78 77.4H1257.38Z" fill="black"/>
<path d="M1275.84 134.4C1277.44 142.933 1281.64 150.067 1288.44 155.8C1295.24 161.4 1303.04 164.2 1311.84 164.2C1318.37 164.2 1324.37 162.667 1329.84 159.6C1335.3 156.533 1339.7 152.333 1343.04 147L1354.84 153.8C1350.3 161.133 1344.24 167 1336.64 171.4C1329.04 175.8 1320.77 178 1311.84 178C1302.77 178 1294.37 175.733 1286.64 171.2C1278.9 166.667 1272.77 160.533 1268.24 152.8C1263.7 145.067 1261.44 136.667 1261.44 127.6C1261.44 118.4 1263.7 110 1268.24 102.4C1272.77 94.6667 1278.9 88.5333 1286.64 84C1294.37 79.4667 1302.77 77.2 1311.84 77.2C1320.9 77.2 1329.3 79.4667 1337.04 84C1344.77 88.5333 1350.9 94.6667 1355.44 102.4C1359.97 110 1362.24 118.4 1362.24 127.6C1362.24 129.2 1362.1 131.467 1361.84 134.4H1275.84ZM1311.84 90.8C1305.97 90.8 1300.24 92.2 1294.64 95C1289.04 97.6667 1284.5 101.4 1281.04 106.2C1277.57 110.867 1275.84 115.933 1275.84 121.4H1347.84C1347.84 115.933 1346.1 110.867 1342.64 106.2C1339.17 101.4 1334.64 97.6667 1329.04 95C1323.57 92.2 1317.84 90.8 1311.84 90.8Z" fill="black"/>
<path d="M1390.28 150.2C1391.35 153.933 1393.01 156.867 1395.28 159C1399.01 162.467 1404.48 164.2 1411.68 164.2C1417.95 164.2 1423.01 162.733 1426.88 159.8C1430.75 156.867 1432.68 153.067 1432.68 148.4C1432.68 144 1431.81 140.733 1430.08 138.6C1428.35 136.467 1426.08 135.133 1423.28 134.6C1420.61 133.933 1416.88 133.533 1412.08 133.4C1405.15 133 1399.48 132.267 1395.08 131.2C1390.68 130 1386.68 127.4 1383.08 123.4C1378.68 117.933 1376.48 111.933 1376.48 105.4C1376.48 103.8 1376.55 102.6 1376.68 101.8C1377.75 93.4 1381.28 87 1387.28 82.6C1393.28 78.0667 1401.35 75.8 1411.48 75.8H1411.68C1419.15 75.8 1425.21 77.2 1429.88 80C1434.55 82.8 1438.15 86.2 1440.68 90.2C1443.35 94.6 1445.01 99.2 1445.68 104H1431.68C1431.41 102.133 1430.55 99.9333 1429.08 97.4C1425.75 92.3333 1419.95 89.6667 1411.68 89.4C1403.28 89.4 1397.75 90.8 1395.08 93.6C1392.41 96.4 1390.81 99.6667 1390.28 103.4C1390.15 103.933 1390.08 104.667 1390.08 105.6C1390.08 108.8 1391.21 111.667 1393.48 114.2C1395.35 116.467 1397.75 118 1400.68 118.8C1403.61 119.467 1407.81 120 1413.28 120.4C1417.68 120.667 1421.41 121.067 1424.48 121.6C1427.68 122.133 1430.68 123.133 1433.48 124.6C1442.15 129.267 1446.48 137.2 1446.48 148.4C1446.48 152.267 1445.68 156 1444.08 159.6C1442.61 163.067 1440.48 166.133 1437.68 168.8C1431.41 174.933 1422.81 178 1411.88 178C1401.21 178 1392.55 175 1385.88 169C1380.68 163.933 1377.48 157.667 1376.28 150.2H1390.28Z" fill="black"/>
<path d="M276.744 225.09C278.832 225.09 280.758 225.612 282.522 226.656C284.286 227.7 285.69 229.104 286.734 230.868C287.778 232.632 288.3 234.54 288.3 236.592C288.3 238.644 287.778 240.552 286.734 242.316C285.69 244.08 284.286 245.484 282.522 246.528C280.758 247.536 278.832 248.04 276.744 248.04H270.426V261H266.7V225.09H276.744ZM276.744 244.422C278.148 244.422 279.444 244.08 280.632 243.396C281.856 242.676 282.81 241.722 283.494 240.534C284.214 239.31 284.574 237.996 284.574 236.592C284.574 235.188 284.214 233.892 283.494 232.704C282.81 231.516 281.856 230.58 280.632 229.896C279.444 229.176 278.148 228.816 276.744 228.816H270.426V244.422H276.744Z" fill="black"/>
<path d="M314.611 248.094L326.221 261H321.253L309.643 248.094H309.319V261H305.593V225.144H314.773C316.861 225.144 318.769 225.666 320.497 226.71C322.261 227.718 323.647 229.104 324.655 230.868C325.699 232.632 326.221 234.558 326.221 236.646C326.221 238.734 325.699 240.66 324.655 242.424C323.647 244.152 322.261 245.538 320.497 246.582C318.769 247.59 316.861 248.094 314.773 248.094H314.611ZM309.319 228.816V244.422H314.773C316.177 244.422 317.473 244.08 318.661 243.396C319.849 242.676 320.785 241.722 321.469 240.534C322.189 239.346 322.549 238.05 322.549 236.646C322.549 235.242 322.189 233.946 321.469 232.758C320.785 231.534 319.849 230.58 318.661 229.896C317.473 229.176 316.177 228.816 314.773 228.816H309.319Z" fill="black"/>
<path d="M359.871 261.27C356.595 261.27 353.589 260.46 350.853 258.84C348.117 257.22 345.939 255.042 344.319 252.306C342.699 249.57 341.889 246.564 341.889 243.288C341.889 240.012 342.699 237.006 344.319 234.27C345.939 231.498 348.117 229.302 350.853 227.682C353.625 226.062 356.631 225.252 359.871 225.252C363.111 225.252 366.117 226.062 368.889 227.682C371.661 229.302 373.857 231.498 375.477 234.27C377.097 237.042 377.907 240.048 377.907 243.288C377.907 246.528 377.097 249.534 375.477 252.306C373.857 255.042 371.661 257.22 368.889 258.84C366.153 260.46 363.147 261.27 359.871 261.27ZM359.871 257.598C362.463 257.598 364.857 256.968 367.053 255.708C369.249 254.412 370.977 252.666 372.237 250.47C373.533 248.274 374.181 245.88 374.181 243.288C374.181 240.696 373.533 238.302 372.237 236.106C370.977 233.91 369.249 232.182 367.053 230.922C364.857 229.626 362.463 228.978 359.871 228.978C357.279 228.978 354.885 229.626 352.689 230.922C350.493 232.182 348.747 233.91 347.451 236.106C346.191 238.302 345.561 240.696 345.561 243.288C345.561 245.88 346.191 248.274 347.451 250.47C348.747 252.666 350.493 254.412 352.689 255.708C354.885 256.968 357.279 257.598 359.871 257.598Z" fill="black"/>
<path d="M395.191 261V225.036H404.263C407.539 225.036 410.545 225.846 413.281 227.466C416.017 229.086 418.195 231.264 419.815 234C421.435 236.736 422.245 239.742 422.245 243.018C422.245 246.294 421.435 249.3 419.815 252.036C418.195 254.772 416.017 256.95 413.281 258.57C410.545 260.19 407.539 261 404.263 261H395.191ZM404.263 257.328C406.855 257.328 409.249 256.698 411.445 255.438C413.641 254.142 415.369 252.396 416.629 250.2C417.925 248.004 418.573 245.61 418.573 243.018C418.573 240.426 417.925 238.032 416.629 235.836C415.369 233.64 413.641 231.912 411.445 230.652C409.249 229.356 406.855 228.708 404.263 228.708H398.917V257.328H404.263Z" fill="black"/>
<path d="M452.043 261.378C449.775 261.378 447.687 260.82 445.779 259.704C443.871 258.552 442.341 257.022 441.189 255.114C440.073 253.206 439.515 251.118 439.515 248.85V225.09H443.133V248.85C443.133 250.47 443.529 251.964 444.321 253.332C445.113 254.664 446.193 255.726 447.561 256.518C448.929 257.274 450.423 257.652 452.043 257.652C453.663 257.652 455.157 257.274 456.525 256.518C457.929 255.726 459.027 254.664 459.819 253.332C460.611 251.964 461.007 250.47 461.007 248.85V225.09H464.571V248.85C464.571 251.118 463.995 253.206 462.843 255.114C461.727 257.022 460.215 258.552 458.307 259.704C456.399 260.82 454.311 261.378 452.043 261.378Z" fill="black"/>
<path d="M499.492 261.324C496.18 261.324 493.138 260.514 490.366 258.894C487.594 257.274 485.398 255.078 483.778 252.306C482.158 249.534 481.348 246.492 481.348 243.18C481.348 239.868 482.158 236.826 483.778 234.054C485.398 231.246 487.594 229.032 490.366 227.412C493.174 225.756 496.216 224.928 499.492 224.928C502.156 224.928 504.694 225.486 507.106 226.602C509.518 227.682 511.57 229.248 513.262 231.3L510.454 233.676C509.086 232.092 507.43 230.868 505.486 230.004C503.578 229.104 501.58 228.654 499.492 228.654C496.9 228.654 494.488 229.32 492.256 230.652C490.06 231.948 488.314 233.712 487.018 235.944C485.722 238.176 485.074 240.588 485.074 243.18C485.074 245.772 485.722 248.184 487.018 250.416C488.314 252.612 490.06 254.358 492.256 255.654C494.488 256.95 496.9 257.598 499.492 257.598C501.58 257.598 503.578 257.166 505.486 256.302C507.43 255.402 509.086 254.16 510.454 252.576L513.262 254.952C511.57 256.968 509.518 258.534 507.106 259.65C504.694 260.766 502.156 261.324 499.492 261.324Z" fill="black"/>
<path d="M550.502 228.708H541.268V261H537.596V228.708H528.362V225.09H550.502V228.708Z" fill="black"/>
<path d="M604.525 261V225.036H613.597C616.873 225.036 619.879 225.846 622.615 227.466C625.351 229.086 627.529 231.264 629.149 234C630.769 236.736 631.579 239.742 631.579 243.018C631.579 246.294 630.769 249.3 629.149 252.036C627.529 254.772 625.351 256.95 622.615 258.57C619.879 260.19 616.873 261 613.597 261H604.525ZM613.597 257.328C616.189 257.328 618.583 256.698 620.779 255.438C622.975 254.142 624.703 252.396 625.963 250.2C627.259 248.004 627.907 245.61 627.907 243.018C627.907 240.426 627.259 238.032 625.963 235.836C624.703 233.64 622.975 231.912 620.779 230.652C618.583 229.356 616.189 228.708 613.597 228.708H608.251V257.328H613.597Z" fill="black"/>
<path d="M652.521 228.762V241.344H663.267V244.8H652.521V257.328H668.505V261H648.849V225.09H668.505V228.762H652.521Z" fill="black"/>
<path d="M706.514 235.512C706.334 234.144 705.902 232.956 705.218 231.948C703.814 229.788 701.492 228.708 698.252 228.708C695.552 228.708 693.59 229.32 692.366 230.544C691.25 231.696 690.692 233.262 690.692 235.242C690.692 237.438 691.304 238.95 692.528 239.778C693.752 240.606 695.462 241.11 697.658 241.29C699.746 241.47 701.51 241.758 702.95 242.154C704.39 242.514 705.596 243.018 706.568 243.666C709.124 245.25 710.402 247.734 710.402 251.118C710.402 252.45 710.132 253.71 709.592 254.898C709.088 256.086 708.35 257.148 707.378 258.084C705.182 260.244 702.176 261.324 698.36 261.324C694.508 261.324 691.466 260.262 689.234 258.138C687.326 256.374 686.174 253.998 685.778 251.01H689.504C689.828 252.81 690.584 254.286 691.772 255.438C693.32 256.878 695.534 257.598 698.414 257.598C700.862 257.598 702.842 257.004 704.354 255.816C705.902 254.592 706.676 253.026 706.676 251.118C706.676 249.894 706.424 248.886 705.92 248.094C705.452 247.266 704.534 246.6 703.166 246.096C701.798 245.592 699.854 245.232 697.334 245.016C690.422 244.404 686.966 241.146 686.966 235.242C686.966 233.766 687.2 232.416 687.668 231.192C688.172 229.932 688.874 228.852 689.774 227.952C691.754 225.972 694.562 224.982 698.198 224.982H698.252C701.96 225.018 704.786 226.044 706.73 228.06C708.71 230.04 709.88 232.542 710.24 235.566H706.514V235.512Z" fill="black"/>
<path d="M731.361 225.09V261H727.689V225.09H731.361Z" fill="black"/>
<path d="M781.202 244.098V253.818C780.158 255.258 778.952 256.5 777.584 257.544C776.936 258.048 776.108 258.57 775.1 259.11C772.4 260.514 769.592 261.216 766.676 261.216C763.4 261.216 760.322 260.37 757.442 258.678C754.562 256.986 752.33 254.646 750.746 251.658C749.954 250.074 749.414 248.598 749.126 247.23C748.802 245.862 748.64 244.494 748.64 243.126C748.64 240.39 749.234 237.834 750.422 235.458C751.214 233.802 752.24 232.29 753.5 230.922C754.796 229.554 756.254 228.402 757.874 227.466C760.574 225.954 763.526 225.198 766.73 225.198C767.558 225.198 768.386 225.252 769.214 225.36C771.338 225.648 773.354 226.332 775.262 227.412C777.206 228.456 778.898 229.824 780.338 231.516L777.53 233.892C775.91 232.02 774.02 230.688 771.86 229.896C770.204 229.248 768.458 228.924 766.622 228.924C764.174 228.924 761.942 229.464 759.926 230.544C758.63 231.264 757.46 232.164 756.416 233.244C755.372 234.324 754.526 235.53 753.878 236.862C752.87 238.842 752.366 240.966 752.366 243.234C752.366 244.458 752.528 245.7 752.852 246.96C753.68 249.984 755.372 252.504 757.928 254.52C759.188 255.456 760.556 256.194 762.032 256.734C763.544 257.238 765.074 257.49 766.622 257.49C768.71 257.49 770.708 257.058 772.616 256.194C774.524 255.294 776.162 254.052 777.53 252.468L777.584 247.77H772.346V244.098H781.202Z" fill="black"/>
<path d="M825.231 225.09V261H820.857L802.767 232.002V261H799.041V225.09H802.929L821.559 254.898V225.09H825.231Z" fill="black"/>
<path d="M965.896 235.512C965.716 234.144 965.284 232.956 964.6 231.948C963.196 229.788 960.874 228.708 957.634 228.708C954.934 228.708 952.972 229.32 951.748 230.544C950.632 231.696 950.074 233.262 950.074 235.242C950.074 237.438 950.686 238.95 951.91 239.778C953.134 240.606 954.844 241.11 957.04 241.29C959.128 241.47 960.892 241.758 962.332 242.154C963.772 242.514 964.978 243.018 965.95 243.666C968.506 245.25 969.784 247.734 969.784 251.118C969.784 252.45 969.514 253.71 968.974 254.898C968.47 256.086 967.732 257.148 966.76 258.084C964.564 260.244 961.558 261.324 957.742 261.324C953.89 261.324 950.848 260.262 948.616 258.138C946.708 256.374 945.556 253.998 945.16 251.01H948.886C949.21 252.81 949.966 254.286 951.154 255.438C952.702 256.878 954.916 257.598 957.796 257.598C960.244 257.598 962.224 257.004 963.736 255.816C965.284 254.592 966.058 253.026 966.058 251.118C966.058 249.894 965.806 248.886 965.302 248.094C964.834 247.266 963.916 246.6 962.548 246.096C961.18 245.592 959.236 245.232 956.716 245.016C949.804 244.404 946.348 241.146 946.348 235.242C946.348 233.766 946.582 232.416 947.05 231.192C947.554 229.932 948.256 228.852 949.156 227.952C951.136 225.972 953.944 224.982 957.58 224.982H957.634C961.342 225.018 964.168 226.044 966.112 228.06C968.092 230.04 969.262 232.542 969.622 235.566H965.896V235.512Z" fill="black"/>
<path d="M1005.98 228.708H996.748V261H993.076V228.708H983.842V225.09H1005.98V228.708Z" fill="black"/>
<path d="M1032.29 248.094L1043.9 261H1038.93L1027.32 248.094H1027V261H1023.27V225.144H1032.45C1034.54 225.144 1036.45 225.666 1038.18 226.71C1039.94 227.718 1041.33 229.104 1042.34 230.868C1043.38 232.632 1043.9 234.558 1043.9 236.646C1043.9 238.734 1043.38 240.66 1042.34 242.424C1041.33 244.152 1039.94 245.538 1038.18 246.582C1036.45 247.59 1034.54 248.094 1032.45 248.094H1032.29ZM1027 228.816V244.422H1032.45C1033.86 244.422 1035.15 244.08 1036.34 243.396C1037.53 242.676 1038.47 241.722 1039.15 240.534C1039.87 239.346 1040.23 238.05 1040.23 236.646C1040.23 235.242 1039.87 233.946 1039.15 232.758C1038.47 231.534 1037.53 230.58 1036.34 229.896C1035.15 229.176 1033.86 228.816 1032.45 228.816H1027Z" fill="black"/>
<path d="M1079.69 247.77H1067.05L1062.41 261H1058.46L1071.05 225.144H1075.69L1088.27 261H1084.33L1079.69 247.77ZM1078.5 244.314L1073.37 229.626L1068.24 244.314H1078.5Z" fill="black"/>
<path d="M1123.35 228.708H1114.11V261H1110.44V228.708H1101.21V225.09H1123.35V228.708Z" fill="black"/>
<path d="M1144.31 228.762V241.344H1155.06V244.8H1144.31V257.328H1160.29V261H1140.64V225.09H1160.29V228.762H1144.31Z" fill="black"/>
<path d="M1208.49 244.098V253.818C1207.45 255.258 1206.24 256.5 1204.88 257.544C1204.23 258.048 1203.4 258.57 1202.39 259.11C1199.69 260.514 1196.88 261.216 1193.97 261.216C1190.69 261.216 1187.61 260.37 1184.73 258.678C1181.85 256.986 1179.62 254.646 1178.04 251.658C1177.25 250.074 1176.71 248.598 1176.42 247.23C1176.09 245.862 1175.93 244.494 1175.93 243.126C1175.93 240.39 1176.53 237.834 1177.71 235.458C1178.51 233.802 1179.53 232.29 1180.79 230.922C1182.09 229.554 1183.55 228.402 1185.17 227.466C1187.87 225.954 1190.82 225.198 1194.02 225.198C1194.85 225.198 1195.68 225.252 1196.51 225.36C1198.63 225.648 1200.65 226.332 1202.55 227.412C1204.5 228.456 1206.19 229.824 1207.63 231.516L1204.82 233.892C1203.2 232.02 1201.31 230.688 1199.15 229.896C1197.5 229.248 1195.75 228.924 1193.91 228.924C1191.47 228.924 1189.23 229.464 1187.22 230.544C1185.92 231.264 1184.75 232.164 1183.71 233.244C1182.66 234.324 1181.82 235.53 1181.17 236.862C1180.16 238.842 1179.66 240.966 1179.66 243.234C1179.66 244.458 1179.82 245.7 1180.14 246.96C1180.97 249.984 1182.66 252.504 1185.22 254.52C1186.48 255.456 1187.85 256.194 1189.32 256.734C1190.84 257.238 1192.37 257.49 1193.91 257.49C1196 257.49 1198 257.058 1199.91 256.194C1201.82 255.294 1203.45 254.052 1204.82 252.468L1204.88 247.77H1199.64V244.098H1208.49Z" fill="black"/>
<path d="M1237.95 247.77V261H1234.23V247.878L1223.1 225.09H1227.21L1236.06 243.18L1244.92 225.09H1249.02L1237.95 247.77Z" fill="black"/>
<path d="M1382.23 261.378C1379.96 261.378 1377.87 260.82 1375.96 259.704C1374.06 258.552 1372.53 257.022 1371.37 255.114C1370.26 253.206 1369.7 251.118 1369.7 248.85V225.09H1373.32V248.85C1373.32 250.47 1373.71 251.964 1374.51 253.332C1375.3 254.664 1376.38 255.726 1377.75 256.518C1379.11 257.274 1380.61 257.652 1382.23 257.652C1383.85 257.652 1385.34 257.274 1386.71 256.518C1388.11 255.726 1389.21 254.664 1390 253.332C1390.8 251.964 1391.19 250.47 1391.19 248.85V225.09H1394.76V248.85C1394.76 251.118 1394.18 253.206 1393.03 255.114C1391.91 257.022 1390.4 258.552 1388.49 259.704C1386.58 260.82 1384.5 261.378 1382.23 261.378Z" fill="black"/>
<path d="M1427.45 243.018L1438.52 261H1434.15L1425.29 246.582L1416.38 261H1412.06L1423.13 243.072L1412.06 225.09H1416.38L1425.29 239.562L1434.2 225.09H1438.52L1427.45 243.018Z" fill="black"/>
<path d="M894 244.5C894 249.195 890.195 253 885.5 253C880.806 253 877 249.195 877 244.5C877 239.806 880.806 236 885.5 236C890.195 236 894 239.806 894 244.5Z" fill="#8B26F3"/>
<path d="M1318 244.5C1318 249.195 1314.19 253 1309.5 253C1304.81 253 1301 249.195 1301 244.5C1301 239.806 1304.81 236 1309.5 236C1314.19 236 1318 239.806 1318 244.5Z" fill="#8B26F3"/>
<path d="M58.1753 198.056C57.0718 196.911 55.2605 194.724 54.1548 193.197C48.7018 185.763 46.2089 176.568 47.4221 168.533C47.6747 166.963 49.9236 159.07 52.4833 151.077C58.2399 132.802 60.8276 124.449 65.7865 107.774C67.9635 100.496 70.2086 93.5043 70.7811 92.2154C72.4168 88.5757 77.88 81.3426 80.8047 78.9812C83.7214 76.5674 87.2161 74.7225 91.3331 73.3861C97.8258 71.2773 152.789 53.7001 172.075 47.5662C176.902 46.0391 185.56 43.2437 191.326 41.4108C202.989 37.6938 203.746 37.6344 206.918 39.969C210.153 42.3499 210.123 42.3276 209.947 59.5328C209.781 74.0849 209.568 100.761 209.38 124.89C209.045 167.671 209.108 166.104 207.009 171.539C206.127 173.833 205.252 175.28 202.305 179.284C198.049 185.13 196.867 186.156 187.542 192.307C184.233 194.479 177.078 199.233 171.717 202.838C166.335 206.474 160.47 210.375 158.707 211.548C156.941 212.719 150.343 217.169 144.04 221.411C137.768 225.675 131.532 229.633 130.228 230.24C121.17 234.354 110.035 233.802 99.8005 228.739C95.7201 226.733 61.2437 201.311 58.1753 198.056ZM101.501 213.847C108.362 217.233 114.8 218.555 120.529 217.737C126.26 216.922 127.089 216.438 155.555 197.12C161.115 193.375 170.345 187.158 176.131 183.296C187.537 175.733 190.037 173.823 191.76 171.481C192.94 169.879 194.071 167.245 194.638 164.862C194.793 164.072 195.026 155.173 195.096 145.014C195.174 134.907 195.267 123.295 195.285 119.271C195.303 115.247 195.385 106.427 195.452 99.6859C195.489 92.9228 195.582 82.7335 195.614 77.0099C195.646 71.2864 195.671 66.4149 195.655 66.1158C195.614 65.8494 186.899 77.4327 174.611 94.1274L153.617 122.652L155.141 124.58C157.856 128.052 159.289 131.527 160.046 136.501C161.257 144.47 159.4 150.797 153.983 157.447C150.557 161.716 147.18 164.171 142.72 165.779C136.992 167.88 131.287 167.955 125.12 166.076C121.937 165.11 121.398 164.81 117.547 161.976C114.465 159.708 112.946 158.353 111.64 156.775C109.451 154.07 107.246 149.647 106.289 146.237C105.006 141.399 105.482 134.625 107.523 129.717C108.675 126.861 113.302 120.77 115.809 118.717C122.948 112.954 132.992 111.179 141.151 114.287L143.446 115.169L164.44 86.6448L185.412 58.1504L182.726 59.0236C169.482 63.144 151.458 68.923 131.427 75.3578C125.477 77.2455 117.286 79.8605 113.189 81.1693C90.6499 88.372 91.1359 88.1596 87.5238 91.3917C84.1011 94.4298 84.3327 93.7936 74.6593 125.71C72.5349 132.79 68.9154 144.421 66.6374 151.578C64.3619 158.738 62.2733 165.701 62.0405 167.05C60.6625 175.44 64.0251 184.228 71.5594 191.864C75.0093 195.306 97.5512 211.847 101.492 213.848L101.501 213.847ZM130.392 153.238C135.596 154.171 141.65 152.073 144.273 148.447C147.704 143.658 147.136 135.973 142.966 130.864C141.551 129.109 141.211 128.859 139.145 128.052C134.653 126.219 129.62 126.408 125.486 128.543C122.722 129.975 120.404 133.256 119.791 136.602C118.378 144.586 123.019 151.895 130.389 153.236L130.392 153.238Z" fill="url(#paint0_linear_2042_473)"/>
</g>
<defs>
<linearGradient id="paint0_linear_2042_473" x1="206.769" y1="39.8595" x2="24.4656" y2="267.557" gradientUnits="userSpaceOnUse">
<stop stop-color="#DA37F4"/>
<stop offset="1" stop-color="#6C1FF3"/>
</linearGradient>
<clipPath id="clip0_2042_473">
<rect width="1476" height="291" fill="white"/>
</clipPath>
</defs>
</svg>
