<svg width="32" height="32" viewBox="0 0 32 32" fill="none" xmlns="http://www.w3.org/2000/svg">
<rect width="32" height="32" fill="url(#paint0_linear_2042_542)"/>
<path d="M6.60067 23.6946C6.47854 23.5678 6.27808 23.3259 6.1557 23.1568C5.55219 22.3341 5.27629 21.3164 5.41056 20.4272C5.43851 20.2533 5.68741 19.3798 5.97071 18.4952C6.60782 16.4726 6.89421 15.5482 7.44304 13.7027C7.68398 12.8971 7.93246 12.1233 7.99582 11.9807C8.17685 11.5779 8.78149 10.7773 9.10518 10.516C9.42799 10.2488 9.81476 10.0447 10.2704 9.89674C10.989 9.66336 17.072 7.71799 19.2065 7.03912C19.7408 6.87011 20.699 6.56073 21.3372 6.35787C22.628 5.94649 22.7118 5.93992 23.0628 6.1983C23.4208 6.4618 23.4175 6.45934 23.398 8.36353C23.3796 9.97409 23.3561 12.9264 23.3352 15.597C23.2982 20.3317 23.3052 20.1583 23.0728 20.7598C22.9752 21.0137 22.8784 21.1738 22.5522 21.617C22.0812 22.264 21.9504 22.3776 20.9184 23.0584C20.5522 23.2988 19.7602 23.8249 19.1669 24.2239C18.5712 24.6263 17.9221 25.058 17.727 25.1878C17.5316 25.3174 16.8013 25.8099 16.1038 26.2794C15.4096 26.7514 14.7194 27.1894 14.5751 27.2565C13.5726 27.7119 12.3403 27.6508 11.2075 27.0905C10.756 26.8684 6.94027 24.0549 6.60067 23.6946ZM11.3957 25.4422C12.1551 25.817 12.8676 25.9633 13.5016 25.8729C14.1359 25.7826 14.2277 25.7291 17.3781 23.5911C17.9935 23.1766 19.015 22.4884 19.6554 22.061C20.9178 21.224 21.1944 21.0126 21.3852 20.7534C21.5157 20.5761 21.641 20.2846 21.7038 20.0209C21.7209 19.9335 21.7466 18.9485 21.7544 17.8242C21.7631 16.7056 21.7733 15.4204 21.7753 14.9751C21.7773 14.5297 21.7864 13.5535 21.7938 12.8075C21.7979 12.059 21.8081 10.9313 21.8117 10.2978C21.8152 9.66435 21.8181 9.1252 21.8162 9.0921C21.8118 9.06262 20.8472 10.3446 19.4873 12.1923L17.1637 15.3493L17.3324 15.5627C17.6329 15.9469 17.7915 16.3315 17.8752 16.8819C18.0093 17.764 17.8038 18.4642 17.2042 19.2002C16.8251 19.6727 16.4513 19.9444 15.9576 20.1223C15.3238 20.3549 14.6923 20.3632 14.0098 20.1552C13.6575 20.0483 13.5978 20.0151 13.1716 19.7014C12.8306 19.4504 12.6624 19.3004 12.5179 19.1259C12.2756 18.8265 12.0316 18.337 11.9257 17.9595C11.7837 17.4241 11.8363 16.6744 12.0623 16.1312C12.1898 15.8151 12.7019 15.1409 12.9793 14.9138C13.7694 14.276 14.881 14.0795 15.784 14.4235L16.038 14.5211L18.3615 11.3642L20.6826 8.21053L20.3853 8.30717C18.9196 8.7632 16.9248 9.40279 14.7078 10.115C14.0493 10.3239 13.1427 10.6133 12.6893 10.7582C10.1948 11.5553 10.2486 11.5318 9.84882 11.8895C9.47001 12.2258 9.49564 12.1554 8.42504 15.6877C8.18992 16.4713 7.78933 17.7585 7.53721 18.5507C7.28537 19.343 7.05421 20.1137 7.02846 20.263C6.87595 21.1916 7.24809 22.1642 8.08196 23.0093C8.46378 23.3903 10.9586 25.2209 11.3948 25.4424L11.3957 25.4422ZM14.5932 18.7344C15.1692 18.8377 15.8392 18.6055 16.1295 18.2041C16.5093 17.6741 16.4464 16.8235 15.9849 16.2581C15.8283 16.0639 15.7907 16.0362 15.562 15.9469C15.0649 15.7441 14.5079 15.765 14.0503 16.0012C13.7443 16.1597 13.4878 16.5229 13.42 16.8931C13.2636 17.7768 13.7773 18.5858 14.593 18.7342L14.5932 18.7344Z" fill="white"/>
<defs>
<linearGradient id="paint0_linear_2042_542" x1="-0.5" y1="-0.5" x2="32" y2="32" gradientUnits="userSpaceOnUse">
<stop stop-color="#DA37F4"/>
<stop offset="0.9999" stop-color="#6C1FF3"/>
</linearGradient>
</defs>
</svg>
